<svg width="100" height="100" viewBox="0 0 100 100" xmlns="http://www.w3.org/2000/svg">
  <path d="M49.5 15C39 15 31 19 25 25L17 35C16 36.5 16.5 38 17.5 39L24 47C24.5 47.5 25 48 25.5 48L28 47C29 46.5 30 45.5 30 44V35C30 30 39 24 49.5 24C60 24 69 30 69 35V44C69 45.5 70 46.5 71 47L73.5 48C74 48 74.5 47.5 75 47L81.5 39C82.5 38 83 36.5 82 35L74 25C68 19 60 15 49.5 15Z" stroke="black" stroke-width="5" fill="none"/>
  <circle cx="49.5" cy="48" r="8" stroke="black" stroke-width="5" fill="none"/>
  <rect x="32" y="82" width="35" height="5" stroke="black" stroke-width="5" fill="none"/>
  <rect x="47" y="67" width="5" height="15" stroke="black" stroke-width="5" fill="none"/>
</svg>