<svg xmlns="http://www.w3.org/2000/svg" viewBox="0 0 1024 1024" fill="none" stroke="currentColor" stroke-width="48" stroke-linecap="round" stroke-linejoin="round">
  <path d="M262 240C262 240 368 161 513 161C658 161 762 240 762 240L758 566C758 566 659 647 513 647C367 647 267 566 267 566L262 240Z"/>
  <path d="M513 399C545 399 571 373 571 341C571 309 545 283 513 283C481 283 455 309 455 341C455 373 481 399 513 399Z"/>
  <path d="M513 647V733"/>
  <path d="M329 819H697C714 819 728 805 728 788V778C728 761 714 747 697 747H329C312 747 298 761 298 778V788C298 805 312 819 329 819Z"/>
</svg>