<svg width="64" height="64" viewBox="0 0 64 64" fill="none" xmlns="http://www.w3.org/2000/svg">
  <!-- Gift box base -->
  <rect x="12" y="24" width="40" height="28" rx="2" fill="#8B5CF6" stroke="#7C3AED" stroke-width="2"/>
  
  <!-- Box lid -->
  <rect x="10" y="20" width="44" height="8" rx="2" fill="#A78BFA" stroke="#7C3AED" stroke-width="2"/>
  
  <!-- Ribbon vertical -->
  <rect x="30" y="12" width="4" height="40" fill="#F59E0B"/>
  
  <!-- Ribbon horizontal -->
  <rect x="16" y="22" width="32" height="4" fill="#F59E0B"/>
  
  <!-- Bow top -->
  <ellipse cx="26" cy="16" rx="6" ry="4" fill="#EF4444"/>
  <ellipse cx="38" cy="16" rx="6" ry="4" fill="#EF4444"/>
  
  <!-- Bow center -->
  <ellipse cx="32" cy="16" rx="3" ry="2" fill="#DC2626"/>
  
  <!-- Jewelry sparkles -->
  <circle cx="20" cy="32" r="1.5" fill="#FDE047"/>
  <circle cx="44" cy="36" r="1.5" fill="#FDE047"/>
  <circle cx="24" cy="44" r="1.5" fill="#FDE047"/>
  <circle cx="40" cy="40" r="1.5" fill="#FDE047"/>
  
  <!-- Diamond sparkle -->
  <path d="M32 30 L34 32 L32 34 L30 32 Z" fill="#FDE047"/>
  
  <!-- Small sparkle effects -->
  <path d="M18 28 L19 29 L18 30 L17 29 Z" fill="#FBBF24"/>
  <path d="M46 30 L47 31 L46 32 L45 31 Z" fill="#FBBF24"/>
  <path d="M28 48 L29 49 L28 50 L27 49 Z" fill="#FBBF24"/>
</svg>