<?xml version="1.0" encoding="UTF-8"?>
<svg xmlns="http://www.w3.org/2000/svg" viewBox="0 0 24 24" width="24" height="24" fill="none" stroke="#006491" stroke-width="1.5" stroke-linecap="round" stroke-linejoin="round">
  <path d="M6 5.5C6 5.5 8 3 12 3C16 3 18 5.5 18 5.5L20 13H4L6 5.5Z" />
  <path d="M12 8.5C12.8 8.5 13.5 7.8 13.5 7C13.5 6.2 12.8 5.5 12 5.5C11.2 5.5 10.5 6.2 10.5 7C10.5 7.8 11.2 8.5 12 8.5Z" />
  <path d="M6 13V15.5" />
  <path d="M18 13V15.5" />
  <rect x="4.5" y="15.5" width="15" height="1.5" />
  <rect x="11" y="13" width="2" height="2.5" />
</svg>